<svg xmlns="http://www.w3.org/2000/svg" width="1200" height="720" viewBox="0 0 1200 720" role="img" aria-labelledby="title desc">
  <title id="title">Model interpretation methods answer different predictive questions</title>
  <desc id="desc">A five-row matrix compares gain, permutation importance, partial dependence, ICE and SHAP by question and limitation. A dark boundary states that none of these methods alone identifies causal ecological mechanism.</desc>
  <rect width="1200" height="720" fill="#FBF7F4"/>
  <style>.h{font:700 29px Georgia,serif;fill:#13263D}.s{font:700 16px Arial,sans-serif;fill:#13263D}.b{font:15px Arial,sans-serif;fill:#30465C}.t{font:13px Arial,sans-serif;fill:#52687D}.box{fill:#fff;stroke:#D9C7BD;stroke-width:2}.row{fill:#F6ECE8;stroke:#D9C7BD;stroke-width:1}.accent{fill:#A35F47}</style>
  <rect x="55" y="73" width="180" height="5" rx="2" class="accent"/><text x="55" y="58" class="h">Interpret the fitted function without inventing a mechanism</text>
  <rect x="55" y="95" width="1090" height="465" rx="15" class="box"/>
  <text x="82" y="133" class="s">Method</text><text x="290" y="133" class="s">Question answered</text><text x="745" y="133" class="s">Principal limitation</text>
  <g transform="translate(75 153)"><rect width="1050" height="65" rx="8" class="row"/><text x="16" y="30" class="s">XGBoost gain</text><text x="215" y="27" class="b">Which split features improved the training objective?</text><text x="670" y="27" class="b">internal credit; correlated substitutes divide unevenly</text><text x="215" y="49" class="t">global · training behaviour</text></g>
  <g transform="translate(75 225)"><rect width="1050" height="65" rx="8" fill="#fff" stroke="#D9C7BD"/><text x="16" y="30" class="s">Permutation</text><text x="215" y="27" class="b">How much does held-out score degrade when disrupted?</text><text x="670" y="27" class="b">model, metric and data dependent; correlation masks reliance</text><text x="215" y="49" class="t">global · evaluation reliance</text></g>
  <g transform="translate(75 297)"><rect width="1050" height="65" rx="8" class="row"/><text x="16" y="30" class="s">Partial dependence</text><text x="215" y="27" class="b">What average model response follows a feature grid?</text><text x="670" y="27" class="b">can create unsupported combinations under dependence</text><text x="215" y="49" class="t">global · fitted response</text></g>
  <g transform="translate(75 369)"><rect width="1050" height="65" rx="8" fill="#fff" stroke="#D9C7BD"/><text x="16" y="30" class="s">ICE</text><text x="215" y="27" class="b">How does that model response vary among observations?</text><text x="670" y="27" class="b">individual curves are not intervention trajectories</text><text x="215" y="49" class="t">local-to-global · heterogeneity</text></g>
  <g transform="translate(75 441)"><rect width="1050" height="65" rx="8" class="row"/><text x="16" y="30" class="s">SHAP</text><text x="215" y="27" class="b">How is one model output allocated from a reference?</text><text x="670" y="27" class="b">depends on model, background and dependence assumptions</text><text x="215" y="49" class="t">local and global · attribution</text></g>
  <rect x="55" y="590" width="1090" height="86" rx="14" fill="#13263D"/><text x="82" y="623" font-family="Arial" font-size="17" font-weight="700" fill="#fff">Claim boundary</text><text x="82" y="652" font-family="Arial" font-size="15" fill="#fff">Predictive reliance or attribution ≠ ecological intervention ≠ causal mechanism. Check fold stability, correlation and applicability first.</text>
</svg>
